<svg xmlns="http://www.w3.org/2000/svg" viewBox="0 0 1200 900" role="img" aria-label="About illustration">
  <rect width="1200" height="900" fill="#1b1612"/>
  <rect x="110" y="120" width="980" height="660" rx="36" fill="#27211c" stroke="#54483b" stroke-width="2"/>
  <rect x="180" y="190" width="360" height="480" rx="24" fill="#df7b11" opacity="0.15"/>
  <rect x="590" y="190" width="430" height="90" rx="20" fill="#df7b11" opacity="0.9"/>
  <rect x="590" y="318" width="320" height="28" rx="14" fill="#b9ab9d" opacity="0.9"/>
  <rect x="590" y="372" width="360" height="28" rx="14" fill="#b9ab9d" opacity="0.6"/>
  <rect x="590" y="426" width="300" height="28" rx="14" fill="#b9ab9d" opacity="0.45"/>
  <rect x="590" y="520" width="230" height="66" rx="18" fill="#df7b11"/>
  <circle cx="330" cy="430" r="110" fill="#df7b11" opacity="0.9"/>
  <path d="M292 423h76c15 0 26 8 26 20 0 8-5 15-13 18l16 22h-28l-13-19h-17v19h-27v-60zm27 29h21c7 0 12-3 12-9 0-5-5-8-12-8h-21v17z" fill="#181511"/>
</svg>